HIERARCHY
ROOT Model
{
	OFFSET 0 0 0
	CHANNELS 6 Xposition Yposition Zposition Zrotation Xrotation Yrotation
	JOINT Model1
	{
		OFFSET 0 -2.25479 2.99384
		CHANNELS 3 Zrotation Xrotation Yrotation
		JOINT Model2
		{
			OFFSET 12.111 0 0
			CHANNELS 3 Zrotation Xrotation Yrotation
			JOINT Model3
			{
				OFFSET 11.5502 0 0
				CHANNELS 3 Zrotation Xrotation Yrotation
				JOINT Model4
				{
					OFFSET 11.781 0 0
					CHANNELS 3 Zrotation Xrotation Yrotation
					JOINT Model5
					{
						OFFSET 20.0601 0 0
						CHANNELS 3 Zrotation Xrotation Yrotation
						JOINT Model6
						{
							OFFSET 11.1962 0 0
							CHANNELS 3 Zrotation Xrotation Yrotation
							End Site
							{
								OFFSET 0 0 0
							}
						}
					}
					JOINT Model7
					{
						OFFSET 10.8223 0.417534 3.51114
						CHANNELS 3 Zrotation Xrotation Yrotation
						JOINT Model8
						{
							OFFSET -6.07944 0 0
							CHANNELS 3 Zrotation Xrotation Yrotation
							JOINT Model9
							{
								OFFSET -0.27742 10.39 -0.051239
								CHANNELS 3 Zrotation Xrotation Yrotation
								JOINT Model10
								{
									OFFSET -3.4391 -0.282043 1.86678
									CHANNELS 3 Zrotation Xrotation Yrotation
									JOINT Model11
									{
										OFFSET 13.0269 0 0
										CHANNELS 3 Zrotation Xrotation Yrotation
										JOINT Model12
										{
											OFFSET 10.8866 0 0
											CHANNELS 3 Zrotation Xrotation Yrotation
											JOINT Model13
											{
												OFFSET 16.7317 0 0
												CHANNELS 3 Zrotation Xrotation Yrotation
												JOINT Model14
												{
													OFFSET 11.8292 0 0
													CHANNELS 3 Zrotation Xrotation Yrotation
													JOINT Model15
													{
														OFFSET 4.82751 -3.73566 -0.836517
														CHANNELS 3 Zrotation Xrotation Yrotation
														JOINT Model16
														{
															OFFSET 3.75311 -0.0582886 -0.0186462
															CHANNELS 3 Zrotation Xrotation Yrotation
															JOINT Model17
															{
																OFFSET 2.88688 0.0192337 0.014801
																CHANNELS 3 Zrotation Xrotation Yrotation
																End Site
																{
																	OFFSET 0 0 0
																}
															}
														}
													}
													JOINT Model18
													{
														OFFSET 9.72197 -3.06458 0.23877
														CHANNELS 3 Zrotation Xrotation Yrotation
														JOINT Model19
														{
															OFFSET 4.61131 0 0
															CHANNELS 3 Zrotation Xrotation Yrotation
															JOINT Model20
															{
																OFFSET 2.8969 -7.62939e-006 0
																CHANNELS 3 Zrotation Xrotation Yrotation
																End Site
																{
																	OFFSET 0 0 0
																}
															}
														}
													}
													JOINT Model21
													{
														OFFSET 9.54431 -0.745064 0.588943
														CHANNELS 3 Zrotation Xrotation Yrotation
														JOINT Model22
														{
															OFFSET 5.33978 0 0
															CHANNELS 3 Zrotation Xrotation Yrotation
															JOINT Model23
															{
																OFFSET 3.03619 7.62939e-006 0
																CHANNELS 3 Zrotation Xrotation Yrotation
																End Site
																{
																	OFFSET 0 0 0
																}
															}
														}
													}
													JOINT Model24
													{
														OFFSET 9.47759 1.51286 0.485123
														CHANNELS 3 Zrotation Xrotation Yrotation
														JOINT Model25
														{
															OFFSET 4.96136 7.62939e-006 0
															CHANNELS 3 Zrotation Xrotation Yrotation
															JOINT Model26
															{
																OFFSET 2.51966 0 0
																CHANNELS 3 Zrotation Xrotation Yrotation
																End Site
																{
																	OFFSET 0 0 0
																}
															}
														}
													}
													JOINT Model27
													{
														OFFSET 9.34247 3.34117 -0.239273
														CHANNELS 3 Zrotation Xrotation Yrotation
														JOINT Model28
														{
															OFFSET 3.2826 2.28882e-005 0
															CHANNELS 3 Zrotation Xrotation Yrotation
															JOINT Model29
															{
																OFFSET 2.1292 0 0
																CHANNELS 3 Zrotation Xrotation Yrotation
																End Site
																{
																	OFFSET 0 0 0
																}
															}
														}
													}
												}
											}
										}
									}
								}
							}
						}
					}
					JOINT Model30
					{
						OFFSET 10.8223 0.4179 -3.51106
						CHANNELS 3 Zrotation Xrotation Yrotation
						JOINT Model31
						{
							OFFSET 6.07944 0 0
							CHANNELS 3 Zrotation Xrotation Yrotation
							JOINT Model32
							{
								OFFSET 0.27742 -10.39 0.051239
								CHANNELS 3 Zrotation Xrotation Yrotation
								JOINT Model33
								{
									OFFSET 3.4391 0.282043 -1.86678
									CHANNELS 3 Zrotation Xrotation Yrotation
									JOINT Model34
									{
										OFFSET -13.0269 0 0
										CHANNELS 3 Zrotation Xrotation Yrotation
										JOINT Model35
										{
											OFFSET -10.8866 0 0
											CHANNELS 3 Zrotation Xrotation Yrotation
											JOINT Model36
											{
												OFFSET -16.7317 0 0
												CHANNELS 3 Zrotation Xrotation Yrotation
												JOINT Model37
												{
													OFFSET -11.8292 0 0
													CHANNELS 3 Zrotation Xrotation Yrotation
													JOINT Model38
													{
														OFFSET -4.82751 3.73566 0.836517
														CHANNELS 3 Zrotation Xrotation Yrotation
														JOINT Model39
														{
															OFFSET -3.75311 0.0582886 0.0186462
															CHANNELS 3 Zrotation Xrotation Yrotation
															JOINT Model40
															{
																OFFSET -2.88689 -0.0192337 -0.014801
																CHANNELS 3 Zrotation Xrotation Yrotation
																End Site
																{
																	OFFSET 0 0 0
																}
															}
														}
													}
													JOINT Model41
													{
														OFFSET -9.72197 3.06459 -0.23877
														CHANNELS 3 Zrotation Xrotation Yrotation
														JOINT Model42
														{
															OFFSET -4.6113 0 0
															CHANNELS 3 Zrotation Xrotation Yrotation
															JOINT Model43
															{
																OFFSET -2.8969 0 0
																CHANNELS 3 Zrotation Xrotation Yrotation
																End Site
																{
																	OFFSET 0 0 0
																}
															}
														}
													}
													JOINT Model44
													{
														OFFSET -9.5443 0.745064 -0.588943
														CHANNELS 3 Zrotation Xrotation Yrotation
														JOINT Model45
														{
															OFFSET -5.33978 0 0
															CHANNELS 3 Zrotation Xrotation Yrotation
															JOINT Model46
															{
																OFFSET -3.03619 -1.52588e-005 0
																CHANNELS 3 Zrotation Xrotation Yrotation
																End Site
																{
																	OFFSET 0 0 0
																}
															}
														}
													}
													JOINT Model47
													{
														OFFSET -9.47758 -1.51286 -0.485123
														CHANNELS 3 Zrotation Xrotation Yrotation
														JOINT Model48
														{
															OFFSET -4.96136 -1.52588e-005 0
															CHANNELS 3 Zrotation Xrotation Yrotation
															JOINT Model49
															{
																OFFSET -2.51965 0 0
																CHANNELS 3 Zrotation Xrotation Yrotation
																End Site
																{
																	OFFSET 0 0 0
																}
															}
														}
													}
													JOINT Model50
													{
														OFFSET -9.34245 -3.34118 0.239273
														CHANNELS 3 Zrotation Xrotation Yrotation
														JOINT Model51
														{
															OFFSET -3.28259 -2.28882e-005 0
															CHANNELS 3 Zrotation Xrotation Yrotation
															JOINT Model52
															{
																OFFSET -2.1292 0 0
																CHANNELS 3 Zrotation Xrotation Yrotation
																End Site
																{
																	OFFSET 0 0 0
																}
															}
														}
													}
												}
											}
										}
									}
								}
							}
						}
					}
				}
			}
		}
	}
	JOINT Model53
	{
		OFFSET 4.38026 -2.14632 -1.11516
		CHANNELS 3 Zrotation Xrotation Yrotation
		JOINT Model54
		{
			OFFSET 0 0 4.95
			CHANNELS 3 Zrotation Xrotation Yrotation
			JOINT Model55
			{
				OFFSET 18.5642 0 0
				CHANNELS 3 Zrotation Xrotation Yrotation
				JOINT Model56
				{
					OFFSET 21.2884 0 1.52588e-005
					CHANNELS 3 Zrotation Xrotation Yrotation
					JOINT Model57
					{
						OFFSET 30.261 0 0
						CHANNELS 3 Zrotation Xrotation Yrotation
						JOINT Model58
						{
							OFFSET 11.7259 0 0
							CHANNELS 3 Zrotation Xrotation Yrotation
							JOINT Model59
							{
								OFFSET 10.682 0 0
								CHANNELS 3 Zrotation Xrotation Yrotation
								End Site
								{
									OFFSET 0 0 0
								}
							}
						}
					}
				}
			}
		}
	}
	JOINT Model60
	{
		OFFSET -4.38026 -2.14632 -1.11516
		CHANNELS 3 Zrotation Xrotation Yrotation
		JOINT Model61
		{
			OFFSET 0 0 -4.95
			CHANNELS 3 Zrotation Xrotation Yrotation
			JOINT Model62
			{
				OFFSET -18.5642 0 0
				CHANNELS 3 Zrotation Xrotation Yrotation
				JOINT Model63
				{
					OFFSET -21.2884 0 -1.52588e-005
					CHANNELS 3 Zrotation Xrotation Yrotation
					JOINT Model64
					{
						OFFSET -30.261 0 0
						CHANNELS 3 Zrotation Xrotation Yrotation
						JOINT Model65
						{
							OFFSET -11.7259 0 0
							CHANNELS 3 Zrotation Xrotation Yrotation
							JOINT Model66
							{
								OFFSET -10.682 0 0
								CHANNELS 3 Zrotation Xrotation Yrotation
								End Site
								{
									OFFSET 0 0 0
								}
							}
						}
					}
				}
			}
		}
	}
}
MOTION
Frames: 6
Frame Time: 0.033333
17.695 147.769 -56.654 -24.3207 79.6077 -156.48 -180 4.29621e-031 -90 2.83965 -2.7387 -0.729007 5.65396 -5.51043 -1.3234 5.65396 -5.51 -1.32344 5.38802 4.55576 -9.46713 -5.20363 2.41391 4.04306 120.092 75.5343 58.4939 20.914 8.50757 -2.07816 -167.277 84.4999 48.8109 174.576 -13.9291 55.5328 2.83249e-005 -19.797 3.38054e-005 -33.426 9.3497 0.339525 -4.94401e-007 13.4923 -3.17284e-006 29.9758 -3.97381 -14.7666 -72.0648 39.0385 39.3397 33.3638 2.10362 14.835 0.588947 0.308273 6.35287 -99.6409 81.413 100.35 -0.0181409 2.78019e-005 -0.117315 -0.124139 0.00241115 -0.799296 -79.8382 79.5773 80.5374 -0.000225789 -0.000220899 2.21911e-005 -0.000956244 0.000122926 -2.73252e-005 -66.7416 80.4058 67.2171 -0.000437145 1.59685e-005 -2.73241e-005 -0.000136622 -0.00010926 -5.4646e-005 -6.42159 81.2158 8.01779 -0.000218581 1.69247e-005 0.000212136 0.000901564 -0.000184779 -0.000218572 -59.9282 75.5373 58.5147 11.8001 9.74441 0.304329 -167.277 84.4999 48.8109 161.104 3.15966 38.3935 -6.08867e-006 19.8382 3.70622e-005 -65.2242 -3.2827 0.554035 -1.75501e-006 -5.58207 6.79965e-007 48.8458 -11.6983 -25.4256 -72.0648 39.0385 39.3397 33.3638 2.10361 14.835 0.588946 0.308273 6.35287 -99.6409 81.413 100.35 -0.0181409 3.005e-005 -0.117315 -0.124139 0.00241109 -0.799296 -79.8382 79.5773 80.5374 -0.000260627 -0.000218594 2.35661e-005 -0.0009562 0.000122958 -2.73261e-005 -66.7416 80.4058 67.2171 -0.000437113 1.48534e-005 -2.73248e-005 -0.000136578 -0.000109321 -5.46466e-005 -6.42159 81.2158 8.01779 -0.000218545 1.95505e-005 0.000212295 0.000901611 -0.000191284 -0.000218568 0.000811311 0.56661 89.91 -34.7243 4.19638 6.95983 1.51784e-006 4.00166 -4.47811e-008 125.75 -2.49511 -0.00681063 -2.40896e-008 -3.83906 -1.12131e-007 -51.9304 -2.78872 1.73561 -35.4947 -9.15007e-006 4.89332e-006 -180 -0.566579 -90.09 7.04201 -13.8183 -8.10266 -6.23965e-006 -12.6556 -1.00157e-006 52.0935 11.6793 -0.00642877 5.35133e-007 17.424 8.93742e-007 -85.2906 20.5275 -8.94212 -64.5656 1.12553 -1.67446 
17.362 148.756 -66.7393 -36.0927 80.0765 -145.968 -180 4.29621e-031 -90 3.12986 -2.0205 -0.439433 6.24999 -4.06238 -0.768468 6.24999 -4.06194 -0.768516 9.4683 2.59393 -20.5986 -7.56487 -1.8674 11.6998 120.092 75.5343 58.4939 21.8133 7.27516 -2.4269 -167.277 84.4999 48.8109 171.664 -9.48518 56.0487 2.3264e-005 -11.3569 3.24427e-005 -31.2457 6.22926 0.317483 -7.55001e-007 8.83712 -3.12234e-006 28.06 -4.19554 -16.6787 -72.0648 39.0385 39.3397 33.3638 2.10362 14.835 0.588947 0.308273 6.35287 -99.6409 81.413 100.35 -0.0181409 2.78019e-005 -0.117315 -0.124139 0.00241115 -0.799296 -79.8382 79.5773 80.5374 -0.000225789 -0.000220899 2.21911e-005 -0.000956244 0.000122926 -2.73252e-005 -66.7416 80.4058 67.2171 -0.000437145 1.59685e-005 -2.73241e-005 -0.000136622 -0.00010926 -5.4646e-005 -6.42159 81.2158 8.01779 -0.000218581 1.69247e-005 0.000212136 0.000901564 -0.000184779 -0.000218572 -59.9282 75.5373 58.5147 19.6357 11.2457 -1.41778 -167.277 84.4999 48.8109 164.629 5.89039 42.0157 -7.43251e-006 21.768 3.75395e-005 -64.6478 -5.9302 0.553611 -1.70723e-006 -9.55548 6.86262e-007 46.1967 -13.611 -31.2646 -72.0648 39.0385 39.3397 33.3638 2.10361 14.835 0.588946 0.308273 6.35287 -99.6409 81.413 100.35 -0.0181409 3.005e-005 -0.117315 -0.124139 0.00241109 -0.799296 -79.8382 79.5773 80.5374 -0.000260627 -0.000218594 2.35661e-005 -0.0009562 0.000122958 -2.73261e-005 -66.7416 80.4058 67.2171 -0.000437113 1.48534e-005 -2.73248e-005 -0.000136578 -0.000109321 -5.46466e-005 -6.42159 81.2158 8.01779 -0.000218545 1.95505e-005 0.000212295 0.000901611 -0.000191284 -0.000218568 0.000811311 0.56661 89.91 -33.1165 5.09225 7.74029 1.51855e-006 4.90555 -4.48362e-008 126.189 -2.99399 -0.00678416 -2.55576e-008 -4.58676 -1.12239e-007 -49.427 -2.44162 1.6687 -35.4947 -9.12379e-006 4.87924e-006 -180 -0.566579 -90.09 17.3037 -16.8163 -7.35011 -6.30971e-006 -16.5015 -1.01922e-006 39.183 12.1193 -0.00511913 5.23955e-007 18.1051 8.97152e-007 -51.872 9.98657 -7.71419 -97.6339 6.65362 3.73329 
17.288 150.062 -76.7104 -60.6981 77.3832 -122.315 -180 4.29621e-031 -90 3.37412 -2.08941 -0.460246 6.73813 -4.20269 -0.797345 6.73812 -4.20226 -0.797397 17.0126 0.477284 -22.0232 -10.6448 -3.5607 14.8254 120.092 75.5343 58.4939 21.8059 9.00183 -2.22805 -167.277 84.4999 48.8109 170.765 -6.318 54.6539 1.98097e-005 -5.2707 3.19425e-005 -29.6529 4.26145 0.222305 -9.15556e-007 5.90524 -3.10174e-006 26.4842 -3.99852 -16.8754 -72.0648 39.0385 39.3397 33.3638 2.10362 14.835 0.588947 0.308273 6.35287 -99.6409 81.413 100.35 -0.0181409 2.78019e-005 -0.117315 -0.124139 0.00241115 -0.799296 -79.8382 79.5773 80.5374 -0.000225789 -0.000220899 2.21911e-005 -0.000956244 0.000122926 -2.73252e-005 -66.7416 80.4058 67.2171 -0.000437145 1.59685e-005 -2.73241e-005 -0.000136622 -0.00010926 -5.4646e-005 -6.42159 81.2158 8.01779 -0.000218581 1.69247e-005 0.000212136 0.000901564 -0.000184779 -0.000218572 -59.9282 75.5373 58.5147 20.5355 8.09299 -2.04046 -167.277 84.4999 48.8109 170.868 9.49295 43.0563 -9.1147e-006 24.1121 3.81953e-005 -66.4573 -4.18936 0.560019 -1.73881e-006 -6.93717 6.81731e-007 47.2482 -12.7146 -28.5813 -72.0648 39.0385 39.3397 33.3638 2.10361 14.835 0.588946 0.308273 6.35287 -99.6409 81.413 100.35 -0.0181409 3.005e-005 -0.117315 -0.124139 0.00241109 -0.799296 -79.8382 79.5773 80.5374 -0.000260627 -0.000218594 2.35661e-005 -0.0009562 0.000122958 -2.73261e-005 -66.7416 80.4058 67.2171 -0.000437113 1.48534e-005 -2.73248e-005 -0.000136578 -0.000109321 -5.46466e-005 -6.42159 81.2158 8.01779 -0.000218545 1.95505e-005 0.000212295 0.000901611 -0.000191284 -0.000218568 0.000811311 0.56661 89.91 -31.6973 7.23609 9.25697 1.52051e-006 7.39063 -4.50462e-008 125.343 -2.42981 -0.00685048 -2.38986e-008 -3.74166 -1.12119e-007 -47.8526 -2.39788 1.75581 -35.4947 -9.09262e-006 4.86277e-006 -180 -0.566579 -90.09 27.0951 -14.0315 -0.915225 -6.37037e-006 -19.713 -1.03807e-006 30.5628 10.6974 -0.00399068 5.58419e-007 15.9888 8.87047e-007 -30.5631 2.27215 -1.7247 -96.5018 18.8476 17.3398 
17.33 150.891 -85.9794 -71.515 76.8455 -110.314 -180 4.29621e-031 -90 3.54811 -2.49182 -0.596073 7.08024 -5.01611 -1.03797 7.08024 -5.01568 -1.03802 19.3938 1.30433 -14.63 -9.24991 -1.12877 11.1374 120.092 75.5343 58.4939 20.9283 8.73318 -2.05405 -167.277 84.4999 48.8109 176.107 -3.24529 55.4994 1.94749e-005 -4.67222 3.19135e-005 -30.5051 4.77821 0.310006 -8.73895e-007 6.66963 -3.1063e-006 26.8583 -4.23011 -17.5849 -72.0648 39.0385 39.3397 33.3638 2.10362 14.835 0.588947 0.308273 6.35287 -99.6409 81.413 100.35 -0.0181409 2.78019e-005 -0.117315 -0.124139 0.00241115 -0.799296 -79.8382 79.5773 80.5374 -0.000225789 -0.000220899 2.21911e-005 -0.000956244 0.000122926 -2.73252e-005 -66.7416 80.4058 67.2171 -0.000437145 1.59685e-005 -2.73241e-005 -0.000136622 -0.00010926 -5.4646e-005 -6.42159 81.2158 8.01779 -0.000218581 1.69247e-005 0.000212136 0.000901564 -0.000184779 -0.000218572 -59.9282 75.5373 58.5147 14.1492 7.80403 -0.624216 -167.277 84.4999 48.8109 176.85 10.86 41.9977 -8.78887e-006 23.6644 3.80634e-005 -65.1707 0.318328 0.552741 -1.81902e-006 -0.180609 6.76744e-007 49.2565 -9.95318 -21.5099 -72.0648 39.0385 39.3397 33.3638 2.10361 14.835 0.588946 0.308273 6.35287 -99.6409 81.413 100.35 -0.0181409 3.005e-005 -0.117315 -0.124139 0.00241109 -0.799296 -79.8382 79.5773 80.5374 -0.000260627 -0.000218594 2.35661e-005 -0.0009562 0.000122958 -2.73261e-005 -66.7416 80.4058 67.2171 -0.000437113 1.48534e-005 -2.73248e-005 -0.000136578 -0.000109321 -5.46466e-005 -6.42159 81.2158 8.01779 -0.000218545 1.95505e-005 0.000212295 0.000901611 -0.000191284 -0.000218568 0.000811311 0.56661 89.91 -29.1048 7.69364 6.47279 1.52173e-006 8.91907 -4.52187e-008 124.365 -1.74217 -0.00699109 -2.18807e-008 -2.71154 -1.12005e-007 -49.2293 -2.91508 2.04948 -35.4947 -9.05647e-006 4.84387e-006 -180 -0.566579 -90.09 24.443 -8.36203 2.8205 -6.30616e-006 -16.3099 -1.01821e-006 43.9404 9.46196 -0.00540853 5.88394e-007 14.1107 8.79263e-007 -30.2182 0.463342 0.237792 -35.4947 7.5931e-008 -1.38017e-007 
17.264 152.216 -95.401 -74.7156 79.8481 -105.884 -180 4.29621e-031 -90 3.67628 -2.22908 -0.429911 7.34414 -4.48154 -0.716595 7.34414 -4.48111 -0.716651 15.6282 1.55243 -12.1201 -4.82582 -0.361831 8.00766 120.092 75.5343 58.4939 15.4306 3.96357 -1.56903 -167.277 84.4999 48.8109 176.772 -0.498829 52.292 1.64555e-005 0.756253 3.18102e-005 -28.1348 3.43816 -1.3187 -9.81533e-007 4.69049 -3.09564e-006 26.8271 -4.61566 -19.1834 -72.0648 39.0385 39.3397 33.3638 2.10362 14.835 0.588947 0.308273 6.35287 -99.6409 81.413 100.35 -0.0181409 2.78019e-005 -0.117315 -0.124139 0.00241115 -0.799296 -79.8382 79.5773 80.5374 -0.000225789 -0.000220899 2.21911e-005 -0.000956244 0.000122926 -2.73252e-005 -66.7416 80.4058 67.2171 -0.000437145 1.59685e-005 -2.73241e-005 -0.000136622 -0.00010926 -5.4646e-005 -6.42159 81.2158 8.01779 -0.000218581 1.69247e-005 0.000212136 0.000901564 -0.000184779 -0.000218572 -59.9282 75.5373 58.5147 9.54182 7.89528 0.461181 -167.277 84.4999 48.8109 -179.305 11.3363 41.6473 -8.0386e-006 22.6219 3.77685e-005 -62.6803 1.9442 0.541334 -1.84775e-006 2.25065 6.77263e-007 50.2979 -9.63826 -20.3613 -72.0648 39.0385 39.3397 33.3638 2.10361 14.835 0.588946 0.308273 6.35287 -99.6409 81.413 100.35 -0.0181409 3.005e-005 -0.117315 -0.124139 0.00241109 -0.799296 -79.8382 79.5773 80.5374 -0.000260627 -0.000218594 2.35661e-005 -0.0009562 0.000122958 -2.73261e-005 -66.7416 80.4058 67.2171 -0.000437113 1.48534e-005 -2.73248e-005 -0.000136578 -0.000109321 -5.46466e-005 -6.42159 81.2158 8.01779 -0.000218545 1.95505e-005 0.000212295 0.000901611 -0.000191284 -0.000218568 0.000811311 0.56661 89.91 -25.9681 6.16063 2.49313 1.52114e-006 8.17748 -4.51309e-008 121.544 -1.97722 -0.00717382 -2.25781e-008 -3.06779 -1.1204e-007 -51.0838 -3.54402 2.36652 -35.4947 -9.01527e-006 4.82252e-006 -180 -0.566579 -90.09 15.6014 -6.26583 2.6419 -6.23533e-006 -12.4142 -1.00063e-006 62.6676 6.82057 -0.00693107 6.50514e-007 10.1226 8.66216e-007 -34.7166 -0.125367 0.61352 -35.4947 -1.09105e-008 -5.09837e-009 
17.128 154.293 -105.154 -77.8151 79.5729 -103.826 -180 4.29621e-031 -90 3.66518 -2.19078 -0.530829 7.31801 -4.41141 -0.921325 7.318 -4.41097 -0.921381 10.903 1.27479 -11.306 -1.36773 -0.773641 7.6795 120.092 75.5343 58.4939 9.1686 0.168761 -1.18863 -167.277 84.4999 48.8109 167.864 7.57415 46.7444 4.33642e-006 21.5151 3.41897e-005 -22.9935 -7.27926 -10.8609 -1.86268e-006 -11.5054 -3.14854e-006 26.2241 -4.79283 -20.371 -72.0648 39.0385 39.3397 33.3638 2.10362 14.835 0.588947 0.308273 6.35287 -99.6409 81.413 100.35 -0.0181409 2.78019e-005 -0.117315 -0.124139 0.00241115 -0.799296 -79.8382 79.5773 80.5374 -0.000225789 -0.000220899 2.21911e-005 -0.000956244 0.000122926 -2.73252e-005 -66.7416 80.4058 67.2171 -0.000437145 1.59685e-005 -2.73241e-005 -0.000136622 -0.00010926 -5.4646e-005 -6.42159 81.2158 8.01779 -0.000218581 1.69247e-005 0.000212136 0.000901564 -0.000184779 -0.000218572 -59.9282 75.5373 58.5147 3.83315 2.50668 0.348771 -167.277 84.4999 48.8109 -174.821 11.4592 40.2681 -7.08252e-006 21.2702 3.74111e-005 -60.6323 5.16889 0.532694 -1.90525e-006 7.08383 6.81946e-007 51.1462 -8.72011 -18.1054 -72.0648 39.0385 39.3397 33.3638 2.10361 14.835 0.588946 0.308273 6.35287 -99.6409 81.413 100.35 -0.0181409 3.005e-005 -0.117315 -0.124139 0.00241109 -0.799296 -79.8382 79.5773 80.5374 -0.000260627 -0.000218594 2.35661e-005 -0.0009562 0.000122958 -2.73261e-005 -66.7416 80.4058 67.2171 -0.000437113 1.48534e-005 -2.73248e-005 -0.000136578 -0.000109321 -5.46466e-005 -6.42159 81.2158 8.01779 -0.000218545 1.95505e-005 0.000212295 0.000901611 -0.000191284 -0.000218568 0.000811311 0.56661 89.91 -26.0603 6.02437 3.45252 1.52062e-006 7.53063 -4.50606e-008 118.229 -2.82129 -0.00740054 -2.50686e-008 -4.33784 -1.12201e-007 -52.1881 -3.58281 2.29647 -35.4947 -8.96894e-006 4.79866e-006 -180 -0.566579 -90.09 3.61159 -7.89319 -0.395512 -6.21718e-006 -11.3955 -9.96888e-007 77.9309 3.32058 -0.00765335 7.3024e-007 4.86067 8.5581e-007 -41.2425 2.75333 -2.29943 -35.4947 -1.25196e-007 6.6575e-008 
